<?xml version="1.0" encoding="utf-8"?>
<!-- Generator: Adobe Illustrator 28.1.0, SVG Export Plug-In . SVG Version: 6.00 Build 0)  -->
<svg version="1.1" id="Layer_1" xmlns="http://www.w3.org/2000/svg" xmlns:xlink="http://www.w3.org/1999/xlink" x="0px" y="0px"
	 viewBox="0 0 266.49 98" style="enable-background:new 0 0 266.49 98;" xml:space="preserve">
<style type="text/css">
	.st0{fill:#FFFFFF;}
	.st1{fill:#009FE3;}
	.st2{fill:#E6007E;}
</style>
<rect x="5.25" y="29.27" width="91.86" height="33.28"/>
<rect x="113.17" y="44.73" width="149.32" height="34.13"/>
<g>
	<path class="st0" d="M166.52,69.95v-1.56c-0.79,1.23-1.94,1.84-3.47,1.84c-0.99,0-1.9-0.27-2.73-0.82
		c-0.83-0.54-1.47-1.31-1.93-2.28c-0.46-0.98-0.68-2.1-0.68-3.37c0-1.24,0.21-2.36,0.62-3.37c0.41-1.01,1.03-1.78,1.86-2.32
		c0.83-0.54,1.75-0.81,2.77-0.81c0.75,0,1.41,0.16,2,0.47c0.58,0.31,1.06,0.73,1.42,1.23v-6.14h2.09v17.11H166.52z M159.87,63.77
		c0,1.59,0.33,2.77,1,3.56s1.46,1.18,2.37,1.18c0.92,0,1.7-0.38,2.34-1.13s0.96-1.9,0.96-3.44c0-1.7-0.33-2.94-0.98-3.74
		c-0.65-0.79-1.46-1.19-2.42-1.19c-0.93,0-1.71,0.38-2.34,1.14C160.19,60.92,159.87,62.12,159.87,63.77z"/>
	<path class="st0" d="M180.26,65.96l2.17,0.27c-0.34,1.27-0.98,2.25-1.9,2.95c-0.93,0.7-2.11,1.05-3.55,1.05
		c-1.81,0-3.25-0.56-4.31-1.68c-1.06-1.12-1.59-2.68-1.59-4.7c0-2.09,0.54-3.71,1.61-4.86c1.07-1.15,2.47-1.73,4.18-1.73
		c1.66,0,3.01,0.56,4.06,1.69c1.05,1.13,1.58,2.72,1.58,4.76c0,0.12,0,0.31-0.01,0.56h-9.25c0.08,1.36,0.46,2.41,1.16,3.13
		s1.56,1.09,2.59,1.09c0.77,0,1.43-0.2,1.97-0.61C179.5,67.49,179.94,66.85,180.26,65.96z M173.36,62.56h6.92
		c-0.09-1.04-0.36-1.83-0.79-2.35c-0.67-0.81-1.54-1.21-2.6-1.21c-0.97,0-1.78,0.32-2.43,0.97
		C173.79,60.62,173.43,61.48,173.36,62.56z"/>
	<path class="st0" d="M188.51,69.95l-4.72-12.4h2.22l2.66,7.42c0.29,0.8,0.55,1.63,0.79,2.5c0.19-0.65,0.45-1.44,0.78-2.36
		l2.76-7.57h2.16l-4.69,12.4H188.51z"/>
	<path class="st0" d="M208.25,68.07l0.3,1.86c-0.59,0.12-1.12,0.19-1.59,0.19c-0.76,0-1.35-0.12-1.77-0.36s-0.72-0.56-0.89-0.95
		c-0.17-0.39-0.26-1.22-0.26-2.48v-7.13h-1.54v-1.63h1.54v-3.07l2.09-1.26v4.33h2.11v1.63h-2.11v7.25c0,0.6,0.04,0.98,0.11,1.16
		c0.07,0.17,0.19,0.31,0.36,0.41c0.17,0.1,0.41,0.15,0.72,0.15C207.56,68.16,207.87,68.13,208.25,68.07z"/>
	<path class="st0" d="M209.52,63.75c0-2.3,0.64-4,1.91-5.1c1.07-0.92,2.37-1.38,3.9-1.38c1.7,0,3.1,0.56,4.18,1.68
		s1.62,2.66,1.62,4.63c0,1.6-0.24,2.85-0.72,3.76c-0.48,0.92-1.17,1.62-2.09,2.13c-0.91,0.51-1.91,0.76-2.99,0.76
		c-1.74,0-3.14-0.56-4.21-1.67C210.06,67.45,209.52,65.85,209.52,63.75z M211.68,63.75c0,1.59,0.35,2.78,1.04,3.57
		s1.56,1.19,2.62,1.19c1.04,0,1.91-0.4,2.6-1.19c0.69-0.79,1.04-2,1.04-3.63c0-1.53-0.35-2.69-1.04-3.48s-1.56-1.18-2.6-1.18
		c-1.05,0-1.92,0.39-2.62,1.18S211.68,62.17,211.68,63.75z"/>
	<path class="st0" d="M222.82,63.75c0-2.3,0.64-4,1.91-5.1c1.07-0.92,2.37-1.38,3.9-1.38c1.71,0,3.1,0.56,4.18,1.68
		s1.62,2.66,1.62,4.63c0,1.6-0.24,2.85-0.72,3.76c-0.48,0.92-1.17,1.62-2.09,2.13c-0.92,0.51-1.91,0.76-3,0.76
		c-1.74,0-3.14-0.56-4.21-1.67C223.36,67.45,222.82,65.85,222.82,63.75z M224.98,63.75c0,1.59,0.35,2.78,1.04,3.57
		c0.69,0.79,1.56,1.19,2.62,1.19c1.04,0,1.91-0.4,2.6-1.19s1.04-2,1.04-3.63c0-1.53-0.35-2.69-1.04-3.48s-1.56-1.18-2.6-1.18
		c-1.05,0-1.92,0.39-2.62,1.18C225.33,60.98,224.98,62.17,224.98,63.75z"/>
	<path class="st0" d="M236.85,69.95V52.84h2.1v17.11H236.85z"/>
	<path class="st0" d="M241.37,66.25l2.08-0.33c0.12,0.83,0.44,1.47,0.97,1.91s1.28,0.67,2.24,0.67c0.96,0,1.68-0.2,2.15-0.59
		s0.7-0.85,0.7-1.38c0-0.47-0.21-0.85-0.62-1.12c-0.29-0.19-1-0.42-2.15-0.71c-1.54-0.39-2.61-0.73-3.2-1.01
		c-0.6-0.28-1.05-0.68-1.35-1.18s-0.46-1.06-0.46-1.66c0-0.55,0.13-1.06,0.38-1.54c0.25-0.47,0.6-0.86,1.03-1.17
		c0.33-0.24,0.77-0.45,1.34-0.61c0.56-0.17,1.17-0.25,1.82-0.25c0.97,0,1.83,0.14,2.56,0.42s1.28,0.66,1.63,1.14
		c0.35,0.48,0.59,1.12,0.72,1.92l-2.05,0.28c-0.09-0.64-0.36-1.14-0.81-1.49c-0.45-0.36-1.08-0.54-1.9-0.54
		c-0.96,0-1.65,0.16-2.07,0.48c-0.41,0.32-0.62,0.69-0.62,1.12c0,0.27,0.08,0.52,0.26,0.74c0.17,0.23,0.44,0.41,0.81,0.56
		c0.21,0.08,0.83,0.26,1.86,0.54c1.49,0.4,2.52,0.72,3.11,0.97c0.59,0.25,1.05,0.62,1.38,1.1s0.5,1.08,0.5,1.8
		c0,0.7-0.2,1.36-0.61,1.98c-0.41,0.62-1,1.1-1.77,1.44s-1.64,0.51-2.61,0.51c-1.61,0-2.84-0.33-3.68-1
		C242.14,68.56,241.61,67.57,241.37,66.25z"/>
</g>
<g>
	<path class="st0" d="M26.8,48.02l2.21,0.56c-0.46,1.81-1.3,3.2-2.5,4.15c-1.2,0.95-2.67,1.43-4.41,1.43c-1.8,0-3.26-0.37-4.39-1.1
		c-1.13-0.73-1.98-1.79-2.57-3.18c-0.59-1.39-0.88-2.88-0.88-4.47c0-1.74,0.33-3.25,1-4.55c0.66-1.29,1.61-2.28,2.83-2.95
		c1.23-0.67,2.58-1.01,4.05-1.01c1.67,0,3.07,0.43,4.21,1.28c1.14,0.85,1.93,2.05,2.38,3.59l-2.17,0.51
		c-0.39-1.21-0.95-2.1-1.69-2.65c-0.74-0.55-1.66-0.83-2.78-0.83c-1.28,0-2.35,0.31-3.22,0.92c-0.86,0.61-1.47,1.44-1.82,2.48
		c-0.35,1.04-0.52,2.1-0.52,3.2c0,1.42,0.21,2.66,0.62,3.72c0.41,1.06,1.06,1.85,1.93,2.37c0.87,0.52,1.82,0.79,2.83,0.79
		c1.24,0,2.28-0.36,3.14-1.07C25.91,50.48,26.49,49.42,26.8,48.02z"/>
	<path class="st0" d="M31.77,53.87V37.18h12.07v1.97h-9.86v5.11h9.23v1.96h-9.23v5.68h10.25v1.97H31.77z"/>
	<path class="st0" d="M47.28,53.87V37.18h6.3c1.11,0,1.95,0.05,2.54,0.16c0.82,0.14,1.51,0.4,2.06,0.78c0.55,0.38,1,0.92,1.34,1.61
		c0.34,0.69,0.51,1.45,0.51,2.28c0,1.42-0.45,2.62-1.35,3.6c-0.9,0.98-2.54,1.47-4.9,1.47h-4.28v6.79H47.28z M49.49,45.11h4.31
		c1.43,0,2.44-0.27,3.04-0.8s0.9-1.28,0.9-2.24c0-0.7-0.18-1.3-0.53-1.79s-0.82-0.83-1.39-0.99c-0.37-0.1-1.06-0.15-2.06-0.15h-4.27
		V45.11z"/>
</g>
<circle class="st1" cx="109.84" cy="50.75" r="42.73"/>
<g>
	<path class="st0" d="M108.76,52.97H93.59V64.8h16.97v6.03H86.24V30.57h23.42v6.03H93.59V47h15.17V52.97z"/>
	<path class="st0" d="M117.01,31.11c2.33-0.48,6.57-0.84,10.69-0.84c5.44,0,8.78,0.66,11.53,2.57c2.51,1.49,4.18,4.12,4.18,7.53
		c0,3.7-2.33,7.11-6.69,8.72v0.12c4.24,1.08,8.12,4.42,8.12,9.98c0,3.58-1.55,6.39-3.88,8.3c-2.87,2.51-7.59,3.76-14.93,3.76
		c-4.06,0-7.17-0.3-9.02-0.54V31.11z M124.3,47h3.76c5.08,0,7.95-2.39,7.95-5.79c0-3.76-2.87-5.5-7.53-5.5
		c-2.15,0-3.4,0.12-4.18,0.3V47z M124.3,65.52c0.96,0.12,2.21,0.18,3.88,0.18c4.72,0,8.9-1.79,8.9-6.75c0-4.66-4.06-6.57-9.14-6.57
		h-3.64V65.52z"/>
</g>
<g>
	<path d="M76.12,52.92h-3.23l-0.3-0.3v-3.7l0.3-0.3h3.46l0.54-6.03l0.3-0.36l3.4-0.48l0.3,0.24v6.63h9.92l0.3,0.3l-1.14,3.7
		l-0.42,0.3h-8.66v14.4c0,4.06,1.97,7.11,5.26,7.11c2.27,0,4.42-1.85,4.42-1.85l0.42,0.06l1.85,3.41l-0.12,0.42
		c-1.97,1.37-4.3,2.39-6.99,2.39c-5.44,0-9.62-3.7-9.62-11.17V52.92z"/>
</g>
</svg>
